<?xml version="1.0" encoding="utf-8"?>
<!-- Generator: Adobe Illustrator 27.5.0, SVG Export Plug-In . SVG Version: 6.00 Build 0)  -->
<svg version="1.1"
	 id="Layer_1" xmlns:dc="http://purl.org/dc/elements/1.1/" xmlns:cc="http://creativecommons.org/ns#" xmlns:rdf="http://www.w3.org/1999/02/22-rdf-syntax-ns#"
	 xmlns="http://www.w3.org/2000/svg" xmlns:xlink="http://www.w3.org/1999/xlink" x="0px" y="0px" viewBox="0 0 555.2 138.6"
	 style="enable-background:new 0 0 555.2 138.6;" xml:space="preserve">
<style type="text/css">
	.st0{fill:#FFFFFF;}
</style>
<path class="st0" d="M181.1,1.3c-20.6,0-34.3,10.8-36.2,27.1c-0.7,6-1.4,11.3-1.4,11.3h268.1c0,0,0.5-4,0.9-7.1
	c2-16.4-4.9-31.2-30.2-31.2v0C382.3,1.4,191.9,1.4,181.1,1.3L181.1,1.3z M17.4,1.4l-4.7,38.3h121.6L139,1.4L17.4,1.4L17.4,1.4z
	 M425.6,1.4l-4.7,38.3h131.8c0,0,0.2-1.4,0.7-5.9c3.2-25.2-13-32.4-28.7-32.4L425.6,1.4L425.6,1.4z M419.1,54.3l-10.3,83.7l45.5,0
	l10.3-83.6L419.1,54.3L419.1,54.3z M505.5,54.3l-10.3,83.7l45.5,0L551,54.3L505.5,54.3L505.5,54.3z M10.9,54.3L0.7,137.9h121.6
	l4.5-36.3l-76.1,0L52.5,86h76.1l3.9-31.7L10.9,54.3L10.9,54.3z M141.7,54.3c-3.3,21.8,7.6,31.7,23.1,31.7c8.4,0,61.5,0,61.5,0
	l-1.9,15.7l-88.5,0l-4.5,36.3c0,0,96.3,0,100.2,0c3.2-0.2,25.8-0.8,33.4-19.3c2.5-6,4.7-27.4,5.3-31.9c3.5-26.2-14.6-32.4-28.8-32.4
	C233.7,54.3,157.2,54.3,141.7,54.3z M283.3,54.3L273,137.9h45.5l6.4-51.9h57.1c16.2,0,24.9-8.7,26.5-20.4c0.8-5.9,1.4-11.3,1.4-11.3
	L283.3,54.3L283.3,54.3z"/>
</svg>
