<svg xmlns="http://www.w3.org/2000/svg" viewBox="0 0 200 200"><defs><style>.cls-1{fill:#fff}</style></defs><path class="cls-1" d="M191.65 0H43.22L8.35 200l80.69-28.55 67.77 27.83L191.65 0z"/><path d="M152.06 190.68l-62.85-25.82-72.97 25.82L45.42 23.17h135.92l-29.28 167.51z" fill="#182d4d"/><path d="M48.4 6.16l-1.85 10.52h135.91l1.85-10.52H48.4z" fill="#0060a8"/><path class="cls-1" d="M140.68 138.21c-11.85-3-9-9.88-24.26-15-9-9.8-23.06-22.85-23.06-22.85-3.93-9.12-.51-18.05-.51-18.05 13.81.95 33.83-4.18 33.83-4.18 7.67 6.53 18.94 4.43 20.53-5.58-8.37-3.17-17.49-1.65-17.49-1.65a14.91 14.91 0 0 0-3.72 2.69s-38.21 3-44.92-3.06c-8.14-7.32 2-23.72 11.69-30.89a4.08 4.08 0 1 0 6.64-4.49 5.76 5.76 0 0 0-6-2c-13.05 8-34.29 23.82-18.19 73.33-7 11.53-14.57 25.72-14.57 25.72-8.11 2.28-11.06 14.87-19.68 15.63-1.18 5.16-11.82 8.7-4.48 15.38 10.65-15.12 30.92-25.34 30.92-25.34 10.81-11.4 20.53-21 20.53-21 20.61 13.35 36.32 18 63.19 33.11 1.65-4 1.39-8.74-10.45-11.72"/><path class="cls-1" d="M91.3 53.09c-2.93-1.39-6.81-.56-8.36 4.33C81.08 63.28 84.4 69.15 86.4 70c1.49.66 4.88-2.47 6.84-6.88s1-8.68-1.94-10.08"/><path d="M84.34 55.92a7.64 7.64 0 0 1 1-2.23 7.65 7.65 0 0 0-2.37 3.73C81.09 63.28 84.4 69.16 86.4 70c.59.26 1.49-.08 2.47-.86-2.43-1.74-6-7.7-4.53-13.26m43.56 19.38S114 80 92.85 78.38a6.34 6.34 0 0 1 0 4.05.87.87 0 0 1 0-.1c13.81 1 33.83-4.18 33.83-4.18 6.46 5.5 15.49 4.88 19.12-1.45-8.75 5.13-17.89-1.44-17.89-1.44M151.17 144c-2.78-.34-13.71-2-20.25-7.53-8.26-7-15-8.51-15-8.51-6.08.38-16.31-13.28-28.51-18.6a40.94 40.94 0 0 1 .59 7.46c20.59 13.33 36.3 18 63.15 33.09a6.54 6.54 0 0 0 0-5.9m-54-102.52a4.08 4.08 0 0 1 0-7.51 4.09 4.09 0 0 0-3 .72h-.05l-.07.06c-7.77 6-11.64 14.69-13.19 19.06a42.75 42.75 0 0 1 12-14.23 4.06 4.06 0 0 0 5.36 2.11 4.08 4.08 0 0 1-1-.27M73.39 62.82a9.24 9.24 0 0 1-2-3c-3.2 10.72-3.06 25.38 3.85 46.62-7 11.53-14.57 25.72-14.57 25.72-8.11 2.28-11.07 14.87-19.68 15.63-1.19 5.15-11.83 8.7-4.48 15.37 10.64-15.12 30.92-25.34 30.92-25.34 1.45-1.54 2.89-3 4.28-4.49a82.4 82.4 0 0 1 11-31c-3-16.22-13.41-18.81-9.32-39.56" fill="#c4c6c9"/></svg>